<?xml version="1.0" encoding="UTF-8" standalone="no"?>
<!DOCTYPE svg PUBLIC "-//W3C//DTD SVG 1.1//EN" "http://www.w3.org/Graphics/SVG/1.1/DTD/svg11.dtd">
<svg version="1.1" xmlns="http://www.w3.org/2000/svg" xmlns:xlink="http://www.w3.org/1999/xlink" preserveAspectRatio="xMidYMid meet" viewBox="0 0 640 640" width="80" height="80"><defs><path d="M640 412.3L601.29 487.1L617.03 363.41C598.34 407.2 587.95 431.53 585.87 436.39C575.3 423.95 560.21 416.12 543.36 416.12C539.85 416.12 536.4 416.48 533.05 417.14C539.69 400.49 543.36 382.14 543.36 362.86C543.36 287.32 486.97 226.1 417.37 226.1C388.49 226.1 361.87 236.67 340.61 254.41C327.62 227.4 301.6 208.96 271.58 208.96C228.92 208.96 194.3 246.19 193.75 292.34C185.44 289.04 176.46 287.25 167.09 287.25C124.1 287.25 89.25 325.09 89.25 371.76C89.25 390.66 94.97 408.12 104.63 422.19C88.89 424.37 75.24 433.77 66.52 447.19C63.33 441.24 47.43 411.47 18.8 357.89L57.22 500.06L55.53 500.27L0 460.88C22.01 506.9 34.24 532.47 36.68 537.58C20.49 546.31 11.52 555.92 11.52 566.02C11.52 605.79 150.38 638.02 321.67 638.02C492.96 638.02 631.83 605.79 631.83 566.02C631.83 556.76 624.27 547.89 610.5 539.74C612.47 536 622.3 517.26 640 483.55L614.88 517.16L640 412.3Z" id="aahKcxTHk"></path></defs><g><g><g><use xlink:href="#aahKcxTHk" opacity="1" fill="#000000" fill-opacity="1"></use><g><use xlink:href="#aahKcxTHk" opacity="1" fill-opacity="0" stroke="#000000" stroke-width="1" stroke-opacity="0"></use></g></g></g></g></svg>