<?xml version="1.0" encoding="UTF-8" standalone="no"?>
<!DOCTYPE svg PUBLIC "-//W3C//DTD SVG 1.1//EN" "http://www.w3.org/Graphics/SVG/1.1/DTD/svg11.dtd">
<svg version="1.1" xmlns="http://www.w3.org/2000/svg" xmlns:xlink="http://www.w3.org/1999/xlink" preserveAspectRatio="xMidYMid meet" viewBox="0 0 640 640" width="80" height="80"><defs><path d="M446.24 101.31C446.24 105.65 446.24 140.37 446.24 144.71C446.24 163.3 435.83 178.91 422.1 180.91C352.63 190.96 286.86 228.12 232.87 287.81C224.51 297.05 217.23 307.94 211.27 320.1C167.26 410.12 83.19 447.89 7.83 411.5C4.78 410.04 1.42 412.18 0.34 416.29C-0.47 419.35 0.2 422.76 2.01 424.89C55.38 487.2 132.15 497.43 193.56 450.42C216.1 435.1 243.1 437.9 263.63 457.7C267.24 476.16 273.61 493.44 282.34 508.48C283.4 510.29 283.17 512.93 281.82 514.36C281.7 514.5 281.56 514.62 281.42 514.73C264.98 526.94 257.92 553.77 264.99 577.19C266.35 581.7 277.24 617.76 278.6 622.27C281.33 631.32 287.87 637.25 295.14 637.24C301.42 637.24 351.74 637.24 358.03 637.24C362.92 637.22 366.87 631.86 366.86 625.28C366.86 624.16 366.74 623.05 366.51 621.98C363.39 607.59 354.52 596.79 343.58 594.05C327.46 593.53 312.65 581.98 304.3 563.43C304.3 563.43 304.3 563.43 304.3 563.43C301.9 558.2 301.9 551.59 304.3 546.36C310.97 532.03 322.3 522.83 334.83 521.57C341.45 521.35 348.01 519.81 354.3 517C349.78 537.67 353.65 560.01 364.49 575.87C369.02 581.38 405.31 625.52 409.85 631.04C413.12 635.02 417.37 637.23 421.78 637.24C426.49 637.24 464.18 637.24 468.89 637.24C473.79 637.26 477.77 631.94 477.78 625.36C477.78 624.61 477.73 623.87 477.63 623.14C473.97 596.51 456.7 577.19 436.57 577.21C434.81 577.21 420.73 577.21 418.97 577.21C417.24 577.21 415.54 576.71 413.97 575.75C403.15 569.15 396.39 554.35 396.9 538.37C396.96 536.59 397.85 535.05 399.13 534.54C428.11 523 445.01 482.52 437.26 443.2C464.81 430.88 488.9 407.52 506.3 376.25C508.58 376.75 510.88 376.92 513.18 376.77C531.53 375.6 547.64 393.05 550.71 417.43C551.52 423.92 556.09 428.3 560.92 427.2C561.59 427.05 562.25 426.79 562.87 426.43C573.56 420.39 580.29 405.99 579.72 390.4C579.59 359.14 560.66 333.94 537.43 334.12C536.84 334.12 536.25 334.15 535.66 334.18C533.46 334.32 531.27 334.1 529.11 333.52C527.63 333.12 526.16 332.62 524.71 332C528.17 320.24 530.76 308.05 532.43 295.6C533.87 285 545.34 200.15 546.77 189.55C547.81 181.81 552.82 176.18 558.66 176.19C562.56 176.19 593.71 176.19 597.6 176.19C604.8 176.19 610.63 168.34 610.63 158.65C610.64 149.95 605.9 142.56 599.5 141.29C597.1 140.82 594.7 140.29 592.31 139.72C592.31 138.89 592.31 132.26 592.31 131.43C592.24 129.28 590.88 127.62 589.29 127.72C587.8 127.82 586.61 129.42 586.54 131.43C586.54 132.11 586.54 137.58 586.54 138.26C581.25 136.82 576 135.16 570.79 133.28C570.79 132.61 570.79 127.29 570.79 126.62C570.77 124.47 569.45 122.76 567.85 122.8C566.3 122.83 565.04 124.52 565.01 126.62C565.01 127.07 565.01 130.66 565.01 131.11C560.09 129.16 555.21 127.01 550.38 124.66C547.39 123.2 545.85 118.77 546.93 114.75C547.58 112.31 549.1 110.48 550.97 109.87C559.76 107.01 568.74 105.43 577.78 105.15C577.78 106.1 577.78 113.64 577.78 114.59C577.79 116.74 579.1 118.46 580.7 118.43C582.27 118.41 583.54 116.7 583.56 114.59C583.56 113.64 583.56 106.1 583.56 105.15C584.93 105.2 586.31 105.27 587.68 105.37C590.37 105.57 593.07 105.33 595.71 104.64C595.71 105.18 595.71 109.53 595.71 110.07C595.79 112.21 597.14 113.85 598.72 113.74C600.2 113.64 601.38 112.06 601.45 110.07C601.45 109.57 601.45 107.04 601.45 102.5L613.5 97.32C613.5 101.27 613.5 103.47 613.5 103.91C613.53 106.05 614.85 107.76 616.44 107.73C618 107.69 619.25 106 619.28 103.91C619.28 102.97 619.28 95.45 619.28 94.51C635.43 84.49 642.48 58.75 635.03 37.02C629.77 21.66 618.35 11.83 605.79 11.84C601.18 11.84 564.28 11.84 559.66 11.84C557.84 11.83 556.04 11.27 554.4 10.2C543.06 2.78 530.51 -0.69 517.92 0.11C477.8 2.7 446.24 47.24 446.24 101.31ZM548.13 47.24C548.13 47.33 548.13 47.42 548.13 47.51C548.2 52.67 545.15 56.93 541.32 57.02C537.49 57.12 534.32 53.02 534.25 47.86C534.25 47.74 534.25 47.63 534.25 47.51C534.22 42.41 537.25 38.22 541.04 38.11C544.87 38 548.04 42.09 548.13 47.24Z" id="a2P1Hx4xdk"></path></defs><g><g><g><g><filter id="shadow4966656" x="-11" y="-11" width="662" height="662.24" filterUnits="userSpaceOnUse" primitiveUnits="userSpaceOnUse"><feFlood></feFlood><feComposite in2="SourceAlpha" operator="in"></feComposite><feGaussianBlur stdDeviation="1"></feGaussianBlur><feOffset dx="2" dy="3" result="afterOffset"></feOffset><feFlood flood-color="#000000" flood-opacity="0.5"></feFlood><feComposite in2="afterOffset" operator="in"></feComposite><feMorphology operator="dilate" radius="1"></feMorphology><feComposite in2="SourceAlpha" operator="out"></feComposite></filter><path d="M446.24 101.31C446.24 105.65 446.24 140.37 446.24 144.71C446.24 163.3 435.83 178.91 422.1 180.91C352.63 190.96 286.86 228.12 232.87 287.81C224.51 297.05 217.23 307.94 211.27 320.1C167.26 410.12 83.19 447.89 7.83 411.5C4.78 410.04 1.42 412.18 0.34 416.29C-0.47 419.35 0.2 422.76 2.01 424.89C55.38 487.2 132.15 497.43 193.56 450.42C216.1 435.1 243.1 437.9 263.63 457.7C267.24 476.16 273.61 493.44 282.34 508.48C283.4 510.29 283.17 512.93 281.82 514.36C281.7 514.5 281.56 514.62 281.42 514.73C264.98 526.94 257.92 553.77 264.99 577.19C266.35 581.7 277.24 617.76 278.6 622.27C281.33 631.32 287.87 637.25 295.14 637.24C301.42 637.24 351.74 637.24 358.03 637.24C362.92 637.22 366.87 631.86 366.86 625.28C366.86 624.16 366.74 623.05 366.51 621.98C363.39 607.59 354.52 596.79 343.58 594.05C327.46 593.53 312.65 581.98 304.3 563.43C304.3 563.43 304.3 563.43 304.3 563.43C301.9 558.2 301.9 551.59 304.3 546.36C310.97 532.03 322.3 522.83 334.83 521.57C341.45 521.35 348.01 519.81 354.3 517C349.78 537.67 353.65 560.01 364.49 575.87C369.02 581.38 405.31 625.52 409.85 631.04C413.12 635.02 417.37 637.23 421.78 637.24C426.49 637.24 464.18 637.24 468.89 637.24C473.79 637.26 477.77 631.94 477.78 625.36C477.78 624.61 477.73 623.87 477.63 623.14C473.97 596.51 456.7 577.19 436.57 577.21C434.81 577.21 420.73 577.21 418.97 577.21C417.24 577.21 415.54 576.71 413.97 575.75C403.15 569.15 396.39 554.35 396.9 538.37C396.96 536.59 397.85 535.05 399.13 534.54C428.11 523 445.01 482.52 437.26 443.2C464.81 430.88 488.9 407.52 506.3 376.25C508.58 376.75 510.88 376.92 513.18 376.77C531.53 375.6 547.64 393.05 550.71 417.43C551.52 423.92 556.09 428.3 560.92 427.2C561.59 427.05 562.25 426.79 562.87 426.43C573.56 420.39 580.29 405.99 579.72 390.4C579.59 359.14 560.66 333.94 537.43 334.12C536.84 334.12 536.25 334.15 535.66 334.18C533.46 334.32 531.27 334.1 529.11 333.52C527.63 333.12 526.16 332.62 524.71 332C528.17 320.24 530.76 308.05 532.43 295.6C533.87 285 545.34 200.15 546.77 189.55C547.81 181.81 552.82 176.18 558.66 176.19C562.56 176.19 593.71 176.19 597.6 176.19C604.8 176.19 610.63 168.34 610.63 158.65C610.64 149.95 605.9 142.56 599.5 141.29C597.1 140.82 594.7 140.29 592.31 139.72C592.31 138.89 592.31 132.26 592.31 131.43C592.24 129.28 590.88 127.62 589.29 127.72C587.8 127.82 586.61 129.42 586.54 131.43C586.54 132.11 586.54 137.58 586.54 138.26C581.25 136.82 576 135.16 570.79 133.28C570.79 132.61 570.79 127.29 570.79 126.62C570.77 124.47 569.45 122.76 567.85 122.8C566.3 122.83 565.04 124.52 565.01 126.62C565.01 127.07 565.01 130.66 565.01 131.11C560.09 129.16 555.21 127.01 550.38 124.66C547.39 123.2 545.85 118.77 546.93 114.75C547.58 112.31 549.1 110.48 550.97 109.87C559.76 107.01 568.74 105.43 577.78 105.15C577.78 106.1 577.78 113.64 577.78 114.59C577.79 116.74 579.1 118.46 580.7 118.43C582.27 118.41 583.54 116.7 583.56 114.59C583.56 113.64 583.56 106.1 583.56 105.15C584.93 105.2 586.31 105.27 587.68 105.37C590.37 105.57 593.07 105.33 595.71 104.64C595.71 105.18 595.71 109.53 595.71 110.07C595.79 112.21 597.14 113.85 598.72 113.74C600.2 113.64 601.38 112.06 601.45 110.07C601.45 109.57 601.45 107.04 601.45 102.5L613.5 97.32C613.5 101.27 613.5 103.47 613.5 103.91C613.53 106.05 614.85 107.76 616.44 107.73C618 107.69 619.25 106 619.28 103.91C619.28 102.97 619.28 95.45 619.28 94.51C635.43 84.49 642.48 58.75 635.03 37.02C629.77 21.66 618.35 11.83 605.79 11.84C601.18 11.84 564.28 11.84 559.66 11.84C557.84 11.83 556.04 11.27 554.4 10.2C543.06 2.78 530.51 -0.69 517.92 0.11C477.8 2.7 446.24 47.24 446.24 101.31ZM548.13 47.24C548.13 47.33 548.13 47.42 548.13 47.51C548.2 52.67 545.15 56.93 541.32 57.02C537.49 57.12 534.32 53.02 534.25 47.86C534.25 47.74 534.25 47.63 534.25 47.51C534.22 42.41 537.25 38.22 541.04 38.11C544.87 38 548.04 42.09 548.13 47.24Z" id="bu07mnvOO" fill="white" fill-opacity="1" filter="url(#shadow4966656)"></path></g><use xlink:href="#a2P1Hx4xdk" opacity="1" fill="#474545" fill-opacity="1"></use><g><use xlink:href="#a2P1Hx4xdk" opacity="1" fill-opacity="0" stroke="#000000" stroke-width="0" stroke-opacity="0"></use></g></g></g></g></svg>