<svg width="640" height="10" xmlns="http://www.w3.org/2000/svg" xmlns:xlink="http://www.w3.org/1999/xlink" preserveAspectRatio="xMidYMid meet">
 <defs>
  <path id="a2IHbp3Zf" d="m16.69,296.81c5.33,1.1 11.42,2.56 23.6,2.56c12.18,0 18.27,-1.46 23.59,-2.56c4.57,-0.91 6.85,-1.46 13.7,-1.46c6.09,0 9.14,0.55 13.7,1.46c5.33,1.1 11.42,2.56 23.6,2.56c12.18,0 18.26,-1.46 23.59,-2.56c4.57,-0.91 6.85,-1.46 13.7,-1.46c6.09,0 9.14,0.55 13.7,1.46c5.33,1.1 11.42,2.56 23.6,2.56c12.18,0 18.26,-1.46 23.59,-2.56c4.57,-0.91 6.85,-1.46 13.7,-1.46c6.09,0 9.14,0.55 13.7,1.46c5.33,1.1 11.42,2.56 23.6,2.56c12.18,0 18.26,-1.46 23.59,-2.56c4.57,-0.91 6.85,-1.46 13.7,-1.46c6.09,0 9.14,0.55 13.7,1.46c5.33,1.1 11.42,2.56 23.6,2.56c12.18,0 18.26,-1.46 23.59,-2.56c4.57,-0.91 6.85,-1.46 13.7,-1.46c6.85,0 9.14,0.55 13.7,1.46c5.33,1.1 11.42,2.56 23.6,2.56c12.18,0 18.26,-1.46 23.59,-2.56c4.57,-0.91 6.85,-1.46 13.7,-1.46c6.09,0 9.14,0.55 13.7,1.46c5.33,1.1 11.42,2.56 23.6,2.56c12.18,0 18.26,-1.46 23.59,-2.56c4.57,-0.91 6.85,-1.46 13.7,-1.46c6.09,0 9.14,0.55 13.7,1.46c5.33,1.1 11.42,2.56 23.6,2.56c12.17,0 18.26,-1.46 23.59,-2.56c4.57,-0.91 6.85,-1.46 13.7,-1.46c6.85,0 9.14,0.55 13.7,1.46c5.33,1.1 11.42,2.56 23.6,2.56c4.56,0 7.61,-0.73 7.61,-1.83c0,-1.09 -3.05,-1.82 -7.61,-1.82c-6.09,0 -9.14,-0.55 -13.7,-1.46c-5.33,-1.1 -11.42,-2.56 -23.6,-2.56c-12.18,0 -18.27,1.46 -23.59,2.56c-4.57,0.91 -6.85,1.46 -13.7,1.46c-6.09,0 -9.14,-0.55 -13.7,-1.46c-5.33,-1.1 -11.42,-2.56 -23.6,-2.56c-12.18,0 -18.26,1.46 -23.59,2.56c-4.57,0.91 -6.85,1.46 -13.7,1.46c-6.85,0 -9.14,-0.55 -13.7,-1.46c-5.33,-1.1 -11.42,-2.56 -23.6,-2.56c-12.18,0 -18.26,1.46 -23.59,2.56c-4.57,0.91 -6.85,1.46 -13.7,1.46c-6.85,0 -9.14,-0.55 -13.7,-1.46c-5.33,-1.1 -11.42,-2.56 -23.6,-2.56c-12.18,0 -18.26,1.46 -23.59,2.56c-4.57,0.91 -6.85,1.46 -13.7,1.46c-6.09,0 -9.14,-0.55 -13.7,-1.46c-5.33,-1.1 -11.42,-2.56 -23.6,-2.56c-12.18,0 -18.26,1.46 -23.59,2.56c-4.57,0.91 -6.85,1.46 -13.7,1.46c-6.09,0 -9.14,-0.55 -13.7,-1.46c-5.33,-1.1 -11.42,-2.56 -23.6,-2.56c-12.18,0 -18.26,1.46 -23.59,2.56c-4.57,0.91 -6.85,1.46 -13.7,1.46c-6.09,0 -9.14,-0.55 -13.7,-1.46c-5.33,-1.1 -11.42,-2.56 -23.6,-2.56c-12.18,0 -18.26,1.46 -23.59,2.56c-4.57,0.91 -6.85,1.46 -13.7,1.46c-6.09,0 -9.14,-0.55 -13.7,-1.46c-5.33,-1.1 -11.42,-2.56 -23.6,-2.56c-12.17,0 -18.26,1.46 -23.59,2.56c-4.57,0.91 -6.85,1.46 -13.7,1.46c-6.85,0 -9.14,-0.55 -13.7,-1.46c-5.33,-1.1 -11.42,-2.56 -23.6,-2.56c-4.56,0 -7.61,0.73 -7.61,1.83c0,1.09 3.05,1.82 7.61,1.82c6.09,0 9.14,0.55 13.7,1.46z"/>
 </defs>
 <g>
  <title>background</title>
  <rect fill="none" id="canvas_background" height="12" width="642" y="-1" x="-1"/>
 </g>
 <g>
  <title>Layer 1</title>
  <g stroke="null" id="svg_1">
   <g stroke="null" id="svg_2">
    <g stroke="null" id="svg_3">
     <use stroke="null" transform="matrix(1,0,0,0.34810804990180344,0,189.5050109208865) " x="0" y="-825.45666" id="svg_4" fill="#000000" xlink:href="#a2IHbp3Zf"/>
     <g stroke="null" id="svg_5">
      <use stroke="#000000" transform="matrix(1,0,0,0.34810804990180344,0,189.5050109208865) " x="0" y="-825.45666" id="svg_6" stroke-opacity="0" fill-opacity="0" xlink:href="#a2IHbp3Zf"/>
     </g>
    </g>
   </g>
  </g>
 </g>
</svg>